<?xml version="1.0" encoding="UTF-8"?>
<svg xmlns="http://www.w3.org/2000/svg" width="900" height="460" viewBox="0 0 900 460" role="img" aria-label="Index Size — TurboQuant">
  <style>
  .title { font: 700 20px -apple-system, BlinkMacSystemFont, "Segoe UI", sans-serif; fill: #0f172a; }
  .subtitle { font: 400 12px -apple-system, BlinkMacSystemFont, "Segoe UI", sans-serif; fill: #475569; }
  .panel { font: 700 14px -apple-system, BlinkMacSystemFont, "Segoe UI", sans-serif; fill: #0f172a; }
  .label { font: 600 12px -apple-system, BlinkMacSystemFont, "Segoe UI", sans-serif; fill: #0f172a; }
  .secondary { font: 400 11px -apple-system, BlinkMacSystemFont, "Segoe UI", sans-serif; fill: #475569; }
  .tick { font: 400 11px -apple-system, BlinkMacSystemFont, "Segoe UI", sans-serif; fill: #64748b; }
  .value { font: 700 11px -apple-system, BlinkMacSystemFont, "Segoe UI", sans-serif; fill: #0f172a; }
  .value-accent { font: 700 11px -apple-system, BlinkMacSystemFont, "Segoe UI", sans-serif; fill: #4338ca; }
  .axis { font: 600 12px -apple-system, BlinkMacSystemFont, "Segoe UI", sans-serif; fill: #334155; }
  .legend { font: 600 12px -apple-system, BlinkMacSystemFont, "Segoe UI", sans-serif; fill: #0f172a; }
</style>
  <rect width="100%" height="100%" fill="#ffffff" />
  <text x="84" y="32" class="title">Index Size — 100K vectors</text>
  <text x="84" y="52" class="subtitle">TurboQuant packs vectors ~16× smaller than FP32 at 2-bit with comparable recall</text>
  <line x1="84" y1="352.0" x2="868" y2="352.0" stroke="#e5e7eb" stroke-width="1" />
<text x="74" y="356.0" text-anchor="end" class="tick">0</text>
<line x1="84" y1="298.0" x2="868" y2="298.0" stroke="#e5e7eb" stroke-width="1" />
<text x="74" y="302.0" text-anchor="end" class="tick">400</text>
<line x1="84" y1="244.0" x2="868" y2="244.0" stroke="#e5e7eb" stroke-width="1" />
<text x="74" y="248.0" text-anchor="end" class="tick">800</text>
<line x1="84" y1="190.0" x2="868" y2="190.0" stroke="#e5e7eb" stroke-width="1" />
<text x="74" y="194.0" text-anchor="end" class="tick">1200</text>
<line x1="84" y1="136.0" x2="868" y2="136.0" stroke="#e5e7eb" stroke-width="1" />
<text x="74" y="140.0" text-anchor="end" class="tick">1600</text>
<line x1="84" y1="82.0" x2="868" y2="82.0" stroke="#e5e7eb" stroke-width="1" />
<text x="74" y="86.0" text-anchor="end" class="tick">2000</text>
<line x1="84" y1="352.0" x2="868" y2="352.0" stroke="#94a3b8" stroke-width="1.5" />
<rect x="120.7" y="341.7" width="56" height="10.3" rx="6" fill="#9aa7b6" />
<text x="148.7" y="335.7" text-anchor="middle" class="value">76</text>
<rect x="186.7" y="350.7" width="56" height="1.3" rx="6" fill="#1d4ed8" />
<text x="214.7" y="344.7" text-anchor="middle" class="value">10</text>
<rect x="252.7" y="351.3" width="56" height="0.7" rx="6" fill="#635bff" stroke="#4338ca" stroke-width="1.5" />
<text x="280.7" y="345.3" text-anchor="middle" class="value-accent">5</text>
<text x="214.7" y="374" text-anchor="middle" class="label">GloVe</text>
<text x="214.7" y="389" text-anchor="middle" class="secondary">d=200</text>
<rect x="382.0" y="272.9" width="56" height="79.1" rx="6" fill="#9aa7b6" />
<text x="410.0" y="266.9" text-anchor="middle" class="value">586</text>
<rect x="448.0" y="342.1" width="56" height="9.9" rx="6" fill="#1d4ed8" />
<text x="476.0" y="336.1" text-anchor="middle" class="value">74</text>
<rect x="514.0" y="347.0" width="56" height="5.0" rx="6" fill="#635bff" stroke="#4338ca" stroke-width="1.5" />
<text x="542.0" y="341.0" text-anchor="middle" class="value-accent">37</text>
<text x="476.0" y="374" text-anchor="middle" class="label">OpenAI</text>
<text x="476.0" y="389" text-anchor="middle" class="secondary">d=1536</text>
<rect x="643.3" y="193.8" width="56" height="158.2" rx="6" fill="#9aa7b6" />
<text x="671.3" y="187.8" text-anchor="middle" class="value">1172</text>
<rect x="709.3" y="332.2" width="56" height="19.8" rx="6" fill="#1d4ed8" />
<text x="737.3" y="326.2" text-anchor="middle" class="value">147</text>
<rect x="775.3" y="342.1" width="56" height="9.9" rx="6" fill="#635bff" stroke="#4338ca" stroke-width="1.5" />
<text x="803.3" y="336.1" text-anchor="middle" class="value-accent">74</text>
<text x="737.3" y="374" text-anchor="middle" class="label">OpenAI</text>
<text x="737.3" y="389" text-anchor="middle" class="secondary">d=3072</text>
<text x="26" y="217.0" transform="rotate(-90, 26, 217.0)" class="axis">Index size (MB)</text>
<rect x="84" y="424" width="14" height="14" rx="3" fill="#9aa7b6" />
<text x="106" y="435" class="legend">FP32</text>
<rect x="204" y="424" width="14" height="14" rx="3" fill="#1d4ed8" />
<text x="226" y="435" class="legend">4-bit</text>
<rect x="324" y="424" width="14" height="14" rx="3" fill="#635bff" stroke="#4338ca" stroke-width="1.5" />
<text x="346" y="435" class="legend">2-bit</text>
</svg>
