<?xml version="1.0" encoding="UTF-8"?>
<svg xmlns="http://www.w3.org/2000/svg" width="1400" height="480" viewBox="0 0 1400 480" role="img" aria-label="Recall — TurboQuant vs FAISS">
  <style>
  .title { font: 700 20px -apple-system, BlinkMacSystemFont, "Segoe UI", sans-serif; fill: #0f172a; }
  .subtitle { font: 400 12px -apple-system, BlinkMacSystemFont, "Segoe UI", sans-serif; fill: #475569; }
  .panel { font: 700 14px -apple-system, BlinkMacSystemFont, "Segoe UI", sans-serif; fill: #0f172a; }
  .label { font: 600 12px -apple-system, BlinkMacSystemFont, "Segoe UI", sans-serif; fill: #0f172a; }
  .secondary { font: 400 11px -apple-system, BlinkMacSystemFont, "Segoe UI", sans-serif; fill: #475569; }
  .tick { font: 400 11px -apple-system, BlinkMacSystemFont, "Segoe UI", sans-serif; fill: #64748b; }
  .value { font: 700 11px -apple-system, BlinkMacSystemFont, "Segoe UI", sans-serif; fill: #0f172a; }
  .value-accent { font: 700 11px -apple-system, BlinkMacSystemFont, "Segoe UI", sans-serif; fill: #4338ca; }
  .axis { font: 600 12px -apple-system, BlinkMacSystemFont, "Segoe UI", sans-serif; fill: #334155; }
  .legend { font: 600 12px -apple-system, BlinkMacSystemFont, "Segoe UI", sans-serif; fill: #0f172a; }
</style>
  <rect width="100%" height="100%" fill="#ffffff" />
  <text x="84" y="32" class="title">Recall — TurboQuant vs FAISS</text>
  <text x="84" y="52" class="subtitle">100K vectors, k=64 search. recall@1@k measures how often the true top-1 result appears in the top-k returned.</text>
  <line x1="84.0" y1="372.0" x2="690.0" y2="372.0" stroke="#e5e7eb" stroke-width="1" />
<text x="74.0" y="376.0" text-anchor="end" class="tick">0.85</text>
<line x1="84.0" y1="314.0" x2="690.0" y2="314.0" stroke="#e5e7eb" stroke-width="1" />
<text x="74.0" y="318.0" text-anchor="end" class="tick">0.88</text>
<line x1="84.0" y1="256.0" x2="690.0" y2="256.0" stroke="#e5e7eb" stroke-width="1" />
<text x="74.0" y="260.0" text-anchor="end" class="tick">0.91</text>
<line x1="84.0" y1="198.0" x2="690.0" y2="198.0" stroke="#e5e7eb" stroke-width="1" />
<text x="74.0" y="202.0" text-anchor="end" class="tick">0.94</text>
<line x1="84.0" y1="140.0" x2="690.0" y2="140.0" stroke="#e5e7eb" stroke-width="1" />
<text x="74.0" y="144.0" text-anchor="end" class="tick">0.97</text>
<line x1="84.0" y1="82.0" x2="690.0" y2="82.0" stroke="#e5e7eb" stroke-width="1" />
<text x="74.0" y="86.0" text-anchor="end" class="tick">1.00</text>
<line x1="84.0" y1="372.0" x2="690.0" y2="372.0" stroke="#94a3b8" stroke-width="1.5" />
<text x="84.0" y="68" class="panel">d=1536</text>
<text x="84.0" y="392" text-anchor="middle" class="label">1</text>
<text x="235.5" y="392" text-anchor="middle" class="label">2</text>
<text x="387.0" y="392" text-anchor="middle" class="label">4</text>
<text x="538.5" y="392" text-anchor="middle" class="label">8</text>
<text x="690.0" y="392" text-anchor="middle" class="label">16</text>
<path d="M 84.0,334.6 L 235.5,164.3 L 387.0,95.1 L 538.5,91.4 L 690.0,91.4" fill="none" stroke="#635bff" stroke-width="2.25" />
<circle cx="84.0" cy="334.6" r="3.5" fill="#635bff" />
<circle cx="235.5" cy="164.3" r="3.5" fill="#635bff" />
<circle cx="387.0" cy="95.1" r="3.5" fill="#635bff" />
<circle cx="538.5" cy="91.4" r="3.5" fill="#635bff" />
<circle cx="690.0" cy="91.4" r="3.5" fill="#635bff" />
<path d="M 84.0,312.1 L 235.5,141.9 L 387.0,98.8 L 538.5,91.4 L 690.0,91.4" fill="none" stroke="#9aa7b6" stroke-width="2.25" stroke-dasharray="6 4" />
<circle cx="84.0" cy="312.1" r="3.5" fill="#9aa7b6" />
<circle cx="235.5" cy="141.9" r="3.5" fill="#9aa7b6" />
<circle cx="387.0" cy="98.8" r="3.5" fill="#9aa7b6" />
<circle cx="538.5" cy="91.4" r="3.5" fill="#9aa7b6" />
<circle cx="690.0" cy="91.4" r="3.5" fill="#9aa7b6" />
<path d="M 84.0,175.5 L 235.5,98.8 L 387.0,91.4 L 538.5,91.4 L 690.0,91.4" fill="none" stroke="#0f766e" stroke-width="2.25" />
<circle cx="84.0" cy="175.5" r="3.5" fill="#0f766e" />
<circle cx="235.5" cy="98.8" r="3.5" fill="#0f766e" />
<circle cx="387.0" cy="91.4" r="3.5" fill="#0f766e" />
<circle cx="538.5" cy="91.4" r="3.5" fill="#0f766e" />
<circle cx="690.0" cy="91.4" r="3.5" fill="#0f766e" />
<path d="M 84.0,173.7 L 235.5,95.1 L 387.0,91.4 L 538.5,91.4 L 690.0,91.4" fill="none" stroke="#64748b" stroke-width="2.25" stroke-dasharray="6 4" />
<circle cx="84.0" cy="173.7" r="3.5" fill="#64748b" />
<circle cx="235.5" cy="95.1" r="3.5" fill="#64748b" />
<circle cx="387.0" cy="91.4" r="3.5" fill="#64748b" />
<circle cx="538.5" cy="91.4" r="3.5" fill="#64748b" />
<circle cx="690.0" cy="91.4" r="3.5" fill="#64748b" />
<text x="22.0" y="227.0" transform="rotate(-90, 22.0, 227.0)" class="axis">recall@1@k</text>
<text x="387.0" y="420" text-anchor="middle" class="axis">k</text>
<line x1="762.0" y1="372.0" x2="1368.0" y2="372.0" stroke="#e5e7eb" stroke-width="1" />
<text x="752.0" y="376.0" text-anchor="end" class="tick">0.85</text>
<line x1="762.0" y1="314.0" x2="1368.0" y2="314.0" stroke="#e5e7eb" stroke-width="1" />
<text x="752.0" y="318.0" text-anchor="end" class="tick">0.88</text>
<line x1="762.0" y1="256.0" x2="1368.0" y2="256.0" stroke="#e5e7eb" stroke-width="1" />
<text x="752.0" y="260.0" text-anchor="end" class="tick">0.91</text>
<line x1="762.0" y1="198.0" x2="1368.0" y2="198.0" stroke="#e5e7eb" stroke-width="1" />
<text x="752.0" y="202.0" text-anchor="end" class="tick">0.94</text>
<line x1="762.0" y1="140.0" x2="1368.0" y2="140.0" stroke="#e5e7eb" stroke-width="1" />
<text x="752.0" y="144.0" text-anchor="end" class="tick">0.97</text>
<line x1="762.0" y1="82.0" x2="1368.0" y2="82.0" stroke="#e5e7eb" stroke-width="1" />
<text x="752.0" y="86.0" text-anchor="end" class="tick">1.00</text>
<line x1="762.0" y1="372.0" x2="1368.0" y2="372.0" stroke="#94a3b8" stroke-width="1.5" />
<text x="762.0" y="68" class="panel">d=3072</text>
<text x="762.0" y="392" text-anchor="middle" class="label">1</text>
<text x="913.5" y="392" text-anchor="middle" class="label">2</text>
<text x="1065.0" y="392" text-anchor="middle" class="label">4</text>
<text x="1216.5" y="392" text-anchor="middle" class="label">8</text>
<text x="1368.0" y="392" text-anchor="middle" class="label">16</text>
<path d="M 762.0,256.0 L 913.5,117.5 L 1065.0,91.4 L 1216.5,91.4 L 1368.0,91.4" fill="none" stroke="#635bff" stroke-width="2.25" />
<circle cx="762.0" cy="256.0" r="3.5" fill="#635bff" />
<circle cx="913.5" cy="117.5" r="3.5" fill="#635bff" />
<circle cx="1065.0" cy="91.4" r="3.5" fill="#635bff" />
<circle cx="1216.5" cy="91.4" r="3.5" fill="#635bff" />
<circle cx="1368.0" cy="91.4" r="3.5" fill="#635bff" />
<path d="M 762.0,272.8 L 913.5,134.4 L 1065.0,91.4 L 1216.5,91.4 L 1368.0,91.4" fill="none" stroke="#9aa7b6" stroke-width="2.25" stroke-dasharray="6 4" />
<circle cx="762.0" cy="272.8" r="3.5" fill="#9aa7b6" />
<circle cx="913.5" cy="134.4" r="3.5" fill="#9aa7b6" />
<circle cx="1065.0" cy="91.4" r="3.5" fill="#9aa7b6" />
<circle cx="1216.5" cy="91.4" r="3.5" fill="#9aa7b6" />
<circle cx="1368.0" cy="91.4" r="3.5" fill="#9aa7b6" />
<path d="M 762.0,153.1 L 913.5,97.0 L 1065.0,91.4 L 1216.5,91.4 L 1368.0,91.4" fill="none" stroke="#0f766e" stroke-width="2.25" />
<circle cx="762.0" cy="153.1" r="3.5" fill="#0f766e" />
<circle cx="913.5" cy="97.0" r="3.5" fill="#0f766e" />
<circle cx="1065.0" cy="91.4" r="3.5" fill="#0f766e" />
<circle cx="1216.5" cy="91.4" r="3.5" fill="#0f766e" />
<circle cx="1368.0" cy="91.4" r="3.5" fill="#0f766e" />
<path d="M 762.0,153.1 L 913.5,95.1 L 1065.0,91.4 L 1216.5,91.4 L 1368.0,91.4" fill="none" stroke="#64748b" stroke-width="2.25" stroke-dasharray="6 4" />
<circle cx="762.0" cy="153.1" r="3.5" fill="#64748b" />
<circle cx="913.5" cy="95.1" r="3.5" fill="#64748b" />
<circle cx="1065.0" cy="91.4" r="3.5" fill="#64748b" />
<circle cx="1216.5" cy="91.4" r="3.5" fill="#64748b" />
<circle cx="1368.0" cy="91.4" r="3.5" fill="#64748b" />
<text x="700.0" y="227.0" transform="rotate(-90, 700.0, 227.0)" class="axis">recall@1@k</text>
<text x="1065.0" y="420" text-anchor="middle" class="axis">k</text>
<line x1="84" y1="452" x2="108" y2="452" stroke="#635bff" stroke-width="2.25" />
<circle cx="96" cy="452" r="3.5" fill="#635bff" />
<text x="116" y="455" class="legend">TQ 2-bit</text>
<line x1="224" y1="452" x2="248" y2="452" stroke="#0f766e" stroke-width="2.25" />
<circle cx="236" cy="452" r="3.5" fill="#0f766e" />
<text x="256" y="455" class="legend">TQ 4-bit</text>
<line x1="364" y1="452" x2="388" y2="452" stroke="#9aa7b6" stroke-width="2.25" stroke-dasharray="6 4" />
<circle cx="376" cy="452" r="3.5" fill="#9aa7b6" />
<text x="396" y="455" class="legend">FAISS 2-bit</text>
<line x1="504" y1="452" x2="528" y2="452" stroke="#64748b" stroke-width="2.25" stroke-dasharray="6 4" />
<circle cx="516" cy="452" r="3.5" fill="#64748b" />
<text x="536" y="455" class="legend">FAISS 4-bit</text>
</svg>
