<?xml version="1.0" encoding="UTF-8"?>
<svg xmlns="http://www.w3.org/2000/svg" width="900" height="460" viewBox="0 0 900 460" role="img" aria-label="Search Latency — x86 (Intel Sapphire Rapids, 4 vCPU) — Single-threaded">
  <style>
  .title { font: 700 20px -apple-system, BlinkMacSystemFont, "Segoe UI", sans-serif; fill: #0f172a; }
  .subtitle { font: 400 12px -apple-system, BlinkMacSystemFont, "Segoe UI", sans-serif; fill: #475569; }
  .panel { font: 700 14px -apple-system, BlinkMacSystemFont, "Segoe UI", sans-serif; fill: #0f172a; }
  .label { font: 600 12px -apple-system, BlinkMacSystemFont, "Segoe UI", sans-serif; fill: #0f172a; }
  .secondary { font: 400 11px -apple-system, BlinkMacSystemFont, "Segoe UI", sans-serif; fill: #475569; }
  .tick { font: 400 11px -apple-system, BlinkMacSystemFont, "Segoe UI", sans-serif; fill: #64748b; }
  .value { font: 700 11px -apple-system, BlinkMacSystemFont, "Segoe UI", sans-serif; fill: #0f172a; }
  .value-accent { font: 700 11px -apple-system, BlinkMacSystemFont, "Segoe UI", sans-serif; fill: #4338ca; }
  .axis { font: 600 12px -apple-system, BlinkMacSystemFont, "Segoe UI", sans-serif; fill: #334155; }
  .legend { font: 600 12px -apple-system, BlinkMacSystemFont, "Segoe UI", sans-serif; fill: #0f172a; }
</style>
  <rect width="100%" height="100%" fill="#ffffff" />
  <text x="84" y="32" class="title">Search Latency — x86 (Intel Sapphire Rapids, 4 vCPU) — Single-threaded</text>
  <text x="84" y="52" class="subtitle">100K vectors, 1K queries, k=64, median of 5 runs</text>
  <line x1="84" y1="352.0" x2="868" y2="352.0" stroke="#e5e7eb" stroke-width="1" />
<text x="74" y="356.0" text-anchor="end" class="tick">0.0</text>
<line x1="84" y1="298.0" x2="868" y2="298.0" stroke="#e5e7eb" stroke-width="1" />
<text x="74" y="302.0" text-anchor="end" class="tick">2.0</text>
<line x1="84" y1="244.0" x2="868" y2="244.0" stroke="#e5e7eb" stroke-width="1" />
<text x="74" y="248.0" text-anchor="end" class="tick">4.0</text>
<line x1="84" y1="190.0" x2="868" y2="190.0" stroke="#e5e7eb" stroke-width="1" />
<text x="74" y="194.0" text-anchor="end" class="tick">6.0</text>
<line x1="84" y1="136.0" x2="868" y2="136.0" stroke="#e5e7eb" stroke-width="1" />
<text x="74" y="140.0" text-anchor="end" class="tick">8.0</text>
<line x1="84" y1="82.0" x2="868" y2="82.0" stroke="#e5e7eb" stroke-width="1" />
<text x="74" y="86.0" text-anchor="end" class="tick">10.0</text>
<line x1="84" y1="352.0" x2="868" y2="352.0" stroke="#94a3b8" stroke-width="1.5" />
<text x="84" y="68" class="panel">Single-threaded</text>
<rect x="135.0" y="313.2" width="44" height="38.8" rx="6" fill="#635bff" stroke="#4338ca" stroke-width="1.5" />
<rect x="185.0" y="318.0" width="44" height="34.0" rx="6" fill="#9aa7b6" />
<text x="157.0" y="307.2" text-anchor="middle" class="value-accent">1.44</text>
<text x="207.0" y="312.0" text-anchor="middle" class="value">1.26</text>
<text x="182.0" y="374" text-anchor="middle" class="label">d=1536</text>
<text x="182.0" y="389" text-anchor="middle" class="secondary">2-bit</text>
<rect x="331.0" y="268.6" width="44" height="83.4" rx="6" fill="#635bff" stroke="#4338ca" stroke-width="1.5" />
<rect x="381.0" y="283.6" width="44" height="68.4" rx="6" fill="#9aa7b6" />
<text x="353.0" y="262.6" text-anchor="middle" class="value-accent">3.09</text>
<text x="403.0" y="277.6" text-anchor="middle" class="value">2.53</text>
<text x="378.0" y="374" text-anchor="middle" class="label">d=1536</text>
<text x="378.0" y="389" text-anchor="middle" class="secondary">4-bit</text>
<rect x="527.0" y="261.5" width="44" height="90.5" rx="6" fill="#635bff" stroke="#4338ca" stroke-width="1.5" />
<rect x="577.0" y="282.0" width="44" height="70.0" rx="6" fill="#9aa7b6" />
<text x="549.0" y="255.5" text-anchor="middle" class="value-accent">3.35</text>
<text x="599.0" y="276.0" text-anchor="middle" class="value">2.59</text>
<text x="574.0" y="374" text-anchor="middle" class="label">d=3072</text>
<text x="574.0" y="389" text-anchor="middle" class="secondary">2-bit</text>
<rect x="723.0" y="176.3" width="44" height="175.7" rx="6" fill="#635bff" stroke="#4338ca" stroke-width="1.5" />
<rect x="773.0" y="214.6" width="44" height="137.4" rx="6" fill="#9aa7b6" />
<text x="745.0" y="170.3" text-anchor="middle" class="value-accent">6.51</text>
<text x="795.0" y="208.6" text-anchor="middle" class="value">5.09</text>
<text x="770.0" y="374" text-anchor="middle" class="label">d=3072</text>
<text x="770.0" y="389" text-anchor="middle" class="secondary">4-bit</text>
<text x="26" y="217.0" transform="rotate(-90, 26, 217.0)" class="axis">ms / query</text>
<rect x="84" y="424" width="14" height="14" rx="3" fill="#635bff" stroke="#4338ca" stroke-width="1.5" />
<text x="106" y="435" class="legend" style="fill: #4338ca;">TurboQuant</text>
<rect x="224" y="424" width="14" height="14" rx="3" fill="#9aa7b6" />
<text x="246" y="435" class="legend">FAISS</text>
</svg>
