<?xml version="1.0" encoding="UTF-8"?>
<svg xmlns="http://www.w3.org/2000/svg" width="1400" height="480" viewBox="0 0 1400 480" role="img" aria-label="Search Latency — x86 (Intel Sapphire Rapids, 4 vCPU)">
  <style>
  .title { font: 700 20px -apple-system, BlinkMacSystemFont, "Segoe UI", sans-serif; fill: #0f172a; }
  .subtitle { font: 400 12px -apple-system, BlinkMacSystemFont, "Segoe UI", sans-serif; fill: #475569; }
  .panel { font: 700 14px -apple-system, BlinkMacSystemFont, "Segoe UI", sans-serif; fill: #0f172a; }
  .label { font: 600 12px -apple-system, BlinkMacSystemFont, "Segoe UI", sans-serif; fill: #0f172a; }
  .secondary { font: 400 11px -apple-system, BlinkMacSystemFont, "Segoe UI", sans-serif; fill: #475569; }
  .tick { font: 400 11px -apple-system, BlinkMacSystemFont, "Segoe UI", sans-serif; fill: #64748b; }
  .value { font: 700 11px -apple-system, BlinkMacSystemFont, "Segoe UI", sans-serif; fill: #0f172a; }
  .value-accent { font: 700 11px -apple-system, BlinkMacSystemFont, "Segoe UI", sans-serif; fill: #4338ca; }
  .axis { font: 600 12px -apple-system, BlinkMacSystemFont, "Segoe UI", sans-serif; fill: #334155; }
  .legend { font: 600 12px -apple-system, BlinkMacSystemFont, "Segoe UI", sans-serif; fill: #0f172a; }
</style>
  <rect width="100%" height="100%" fill="#ffffff" />
  <text x="84" y="32" class="title">Search Latency — x86 (Intel Sapphire Rapids, 4 vCPU)</text>
  <text x="84" y="52" class="subtitle">100K vectors, 1K queries, k=64, median of 5 runs</text>
  <line x1="84" y1="372.0" x2="690.0" y2="372.0" stroke="#e5e7eb" stroke-width="1" />
<text x="74" y="376.0" text-anchor="end" class="tick">0.0</text>
<line x1="84" y1="314.0" x2="690.0" y2="314.0" stroke="#e5e7eb" stroke-width="1" />
<text x="74" y="318.0" text-anchor="end" class="tick">2.0</text>
<line x1="84" y1="256.0" x2="690.0" y2="256.0" stroke="#e5e7eb" stroke-width="1" />
<text x="74" y="260.0" text-anchor="end" class="tick">4.0</text>
<line x1="84" y1="198.0" x2="690.0" y2="198.0" stroke="#e5e7eb" stroke-width="1" />
<text x="74" y="202.0" text-anchor="end" class="tick">6.0</text>
<line x1="84" y1="140.0" x2="690.0" y2="140.0" stroke="#e5e7eb" stroke-width="1" />
<text x="74" y="144.0" text-anchor="end" class="tick">8.0</text>
<line x1="84" y1="82.0" x2="690.0" y2="82.0" stroke="#e5e7eb" stroke-width="1" />
<text x="74" y="86.0" text-anchor="end" class="tick">10.0</text>
<line x1="84" y1="372.0" x2="690.0" y2="372.0" stroke="#94a3b8" stroke-width="1.5" />
<text x="84" y="68" class="panel">Single-threaded</text>
<rect x="112.8" y="330.4" width="44" height="41.6" rx="6" fill="#635bff" stroke="#4338ca" stroke-width="1.5" />
<rect x="162.8" y="335.5" width="44" height="36.5" rx="6" fill="#9aa7b6" />
<text x="134.8" y="324.4" text-anchor="middle" class="value-accent">1.44</text>
<text x="184.8" y="329.5" text-anchor="middle" class="value">1.26</text>
<text x="159.8" y="394" text-anchor="middle" class="label">d=1536</text>
<text x="159.8" y="409" text-anchor="middle" class="secondary">2-bit</text>
<rect x="264.2" y="282.4" width="44" height="89.6" rx="6" fill="#635bff" stroke="#4338ca" stroke-width="1.5" />
<rect x="314.2" y="298.6" width="44" height="73.4" rx="6" fill="#9aa7b6" />
<text x="286.2" y="276.4" text-anchor="middle" class="value-accent">3.09</text>
<text x="336.2" y="292.6" text-anchor="middle" class="value">2.53</text>
<text x="311.2" y="394" text-anchor="middle" class="label">d=1536</text>
<text x="311.2" y="409" text-anchor="middle" class="secondary">4-bit</text>
<rect x="415.8" y="274.8" width="44" height="97.2" rx="6" fill="#635bff" stroke="#4338ca" stroke-width="1.5" />
<rect x="465.8" y="296.8" width="44" height="75.2" rx="6" fill="#9aa7b6" />
<text x="437.8" y="268.8" text-anchor="middle" class="value-accent">3.35</text>
<text x="487.8" y="290.8" text-anchor="middle" class="value">2.59</text>
<text x="462.8" y="394" text-anchor="middle" class="label">d=3072</text>
<text x="462.8" y="409" text-anchor="middle" class="secondary">2-bit</text>
<rect x="567.2" y="183.3" width="44" height="188.7" rx="6" fill="#635bff" stroke="#4338ca" stroke-width="1.5" />
<rect x="617.2" y="224.4" width="44" height="147.6" rx="6" fill="#9aa7b6" />
<text x="589.2" y="177.3" text-anchor="middle" class="value-accent">6.51</text>
<text x="639.2" y="218.4" text-anchor="middle" class="value">5.09</text>
<text x="614.2" y="394" text-anchor="middle" class="label">d=3072</text>
<text x="614.2" y="409" text-anchor="middle" class="secondary">4-bit</text>
<line x1="762.0" y1="372.0" x2="1368.0" y2="372.0" stroke="#e5e7eb" stroke-width="1" />
<text x="752.0" y="376.0" text-anchor="end" class="tick">0.00</text>
<line x1="762.0" y1="314.0" x2="1368.0" y2="314.0" stroke="#e5e7eb" stroke-width="1" />
<text x="752.0" y="318.0" text-anchor="end" class="tick">1.00</text>
<line x1="762.0" y1="256.0" x2="1368.0" y2="256.0" stroke="#e5e7eb" stroke-width="1" />
<text x="752.0" y="260.0" text-anchor="end" class="tick">2.00</text>
<line x1="762.0" y1="198.0" x2="1368.0" y2="198.0" stroke="#e5e7eb" stroke-width="1" />
<text x="752.0" y="202.0" text-anchor="end" class="tick">3.00</text>
<line x1="762.0" y1="140.0" x2="1368.0" y2="140.0" stroke="#e5e7eb" stroke-width="1" />
<text x="752.0" y="144.0" text-anchor="end" class="tick">4.00</text>
<line x1="762.0" y1="82.0" x2="1368.0" y2="82.0" stroke="#e5e7eb" stroke-width="1" />
<text x="752.0" y="86.0" text-anchor="end" class="tick">5.00</text>
<line x1="762.0" y1="372.0" x2="1368.0" y2="372.0" stroke="#94a3b8" stroke-width="1.5" />
<text x="762.0" y="68" class="panel">Multi-threaded</text>
<rect x="790.8" y="332.6" width="44" height="39.4" rx="6" fill="#635bff" stroke="#4338ca" stroke-width="1.5" />
<rect x="840.8" y="337.8" width="44" height="34.2" rx="6" fill="#9aa7b6" />
<text x="812.8" y="326.6" text-anchor="middle" class="value-accent">0.679</text>
<text x="862.8" y="331.8" text-anchor="middle" class="value">0.589</text>
<text x="837.8" y="394" text-anchor="middle" class="label">d=1536</text>
<text x="837.8" y="409" text-anchor="middle" class="secondary">2-bit</text>
<rect x="942.2" y="296.5" width="44" height="75.5" rx="6" fill="#635bff" stroke="#4338ca" stroke-width="1.5" />
<rect x="992.2" y="303.7" width="44" height="68.3" rx="6" fill="#9aa7b6" />
<text x="964.2" y="290.5" text-anchor="middle" class="value-accent">1.302</text>
<text x="1014.2" y="297.7" text-anchor="middle" class="value">1.178</text>
<text x="989.2" y="394" text-anchor="middle" class="label">d=1536</text>
<text x="989.2" y="409" text-anchor="middle" class="secondary">4-bit</text>
<rect x="1093.8" y="291.0" width="44" height="81.0" rx="6" fill="#635bff" stroke="#4338ca" stroke-width="1.5" />
<rect x="1143.8" y="303.7" width="44" height="68.3" rx="6" fill="#9aa7b6" />
<text x="1115.8" y="285.0" text-anchor="middle" class="value-accent">1.397</text>
<text x="1165.8" y="297.7" text-anchor="middle" class="value">1.178</text>
<text x="1140.8" y="394" text-anchor="middle" class="label">d=3072</text>
<text x="1140.8" y="409" text-anchor="middle" class="secondary">2-bit</text>
<rect x="1245.2" y="219.1" width="44" height="152.9" rx="6" fill="#635bff" stroke="#4338ca" stroke-width="1.5" />
<rect x="1295.2" y="235.8" width="44" height="136.2" rx="6" fill="#9aa7b6" />
<text x="1267.2" y="213.1" text-anchor="middle" class="value-accent">2.636</text>
<text x="1317.2" y="229.8" text-anchor="middle" class="value">2.349</text>
<text x="1292.2" y="394" text-anchor="middle" class="label">d=3072</text>
<text x="1292.2" y="409" text-anchor="middle" class="secondary">4-bit</text>
<text x="26" y="227.0" transform="rotate(-90, 26, 227.0)" class="axis">ms / query</text>
<text x="710.0" y="227.0" transform="rotate(-90, 710.0, 227.0)" class="axis">ms / query</text>
<rect x="84" y="444" width="14" height="14" rx="3" fill="#635bff" stroke="#4338ca" stroke-width="1.5" />
<text x="106" y="455" class="legend" style="fill: #4338ca;">TurboQuant</text>
<rect x="224" y="444" width="14" height="14" rx="3" fill="#9aa7b6" />
<text x="246" y="455" class="legend">FAISS</text>
</svg>
